HIERARCHY
ROOT hip
{
  OFFSET 0 0 0
  CHANNELS 6 Xposition Yposition Zposition Zrotation Yrotation Xrotation
  JOINT abdomen
  {
    OFFSET 0 20.6881 -0.73152
    CHANNELS 3 Zrotation Xrotation Yrotation
    JOINT chest
    {
      OFFSET 0 11.7043 -0.48768
      CHANNELS 3 Zrotation Xrotation Yrotation
      JOINT neck
      {
        OFFSET 0 22.1894 -2.19456
        CHANNELS 3 Zrotation Xrotation Yrotation
        JOINT head
        {
          OFFSET -0.24384 7.07133 1.2192
          CHANNELS 3 Zrotation Xrotation Yrotation
          JOINT leftEye
          {
            OFFSET 4.14528 8.04674 8.04672
            CHANNELS 3 Zrotation Xrotation Yrotation
            End Site
            {
              OFFSET 1 0 0
            }
          }
          JOINT rightEye
          {
            OFFSET -3.6576 8.04674 8.04672
            CHANNELS 3 Zrotation Xrotation Yrotation
            End Site
            {
              OFFSET 1 0 0
            }
          }
        }
      }
      JOINT rCollar
      {
        OFFSET -2.68224 19.2634 -4.8768
        CHANNELS 3 Zrotation Xrotation Yrotation
        JOINT rShldr
        {
          OFFSET -8.77824 -1.95073 1.46304
          CHANNELS 3 Zrotation Xrotation Yrotation
          JOINT rForeArm
          {
            OFFSET -28.1742 -1.7115 0.48768
            CHANNELS 3 Zrotation Xrotation Yrotation
            JOINT rHand
            {
              OFFSET -22.5879 0.773209 7.07136
              CHANNELS 3 Zrotation Xrotation Yrotation
              JOINT rThumb1
              {
                OFFSET -1.2192 -0.487915 3.41376
                CHANNELS 3 Zrotation Xrotation Yrotation
                JOINT rThumb2
                {
                  OFFSET -3.37035 -0.52449 3.41376
                  CHANNELS 3 Zrotation Xrotation Yrotation
                  End Site
                  {
                    OFFSET -1.78271 -1.18214 1.43049
                  }
                }
              }
              JOINT rIndex1
              {
                OFFSET -7.75947 0.938293 5.60832
                CHANNELS 3 Zrotation Xrotation Yrotation
                JOINT rIndex2
                {
                  OFFSET -2.54057 -0.884171 1.56538
                  CHANNELS 3 Zrotation Xrotation Yrotation
                  End Site
                  {
                    OFFSET -1.62519 -0.234802 1.16502
                  }
                }
              }
              JOINT rMid1
              {
                OFFSET -8.24714 1.18213 3.41376
                CHANNELS 3 Zrotation Xrotation Yrotation
                JOINT rMid2
                {
                  OFFSET -3.10165 -0.590103 1.0647
                  CHANNELS 3 Zrotation Xrotation Yrotation
                  End Site
                  {
                    OFFSET -2.48547 -0.328903 0.83742
                  }
                }
              }
              JOINT rRing1
              {
                OFFSET -8.82822 0.546677 1.51678
                CHANNELS 3 Zrotation Xrotation Yrotation
                JOINT rRing2
                {
                  OFFSET -2.60934 -0.819778 -0.0198488
                  CHANNELS 3 Zrotation Xrotation Yrotation
                  End Site
                  {
                    OFFSET -2.33842 -0.294052 0.168128
                  }
                }
              }
              JOINT rPinky1
              {
                OFFSET -8.27202 -0.0477905 -0.4584
                CHANNELS 3 Zrotation Xrotation Yrotation
                JOINT rPinky2
                {
                  OFFSET -1.82734 -0.647385 -0.700984
                  CHANNELS 3 Zrotation Xrotation Yrotation
                  End Site
                  {
                    OFFSET -1.69225 -0.51767 -0.607171
                  }
                }
              }
            }
          }
        }
      }
      JOINT lCollar
      {
        OFFSET 2.68224 19.2634 -4.8768
        CHANNELS 3 Zrotation Xrotation Yrotation
        JOINT lShldr
        {
          OFFSET 8.77824 -1.95073 1.46304
          CHANNELS 3 Zrotation Xrotation Yrotation
          JOINT lForeArm
          {
            OFFSET 28.1742 -1.7115 0.48768
            CHANNELS 3 Zrotation Xrotation Yrotation
            JOINT lHand
            {
              OFFSET 22.5879 0.773209 7.07136
              CHANNELS 3 Zrotation Xrotation Yrotation
              JOINT lThumb1
              {
                OFFSET 1.2192 -0.487915 3.41376
                CHANNELS 3 Zrotation Xrotation Yrotation
                JOINT lThumb2
                {
                  OFFSET 3.37035 -0.52449 3.41376
                  CHANNELS 3 Zrotation Xrotation Yrotation
                  End Site
                  {
                    OFFSET 1.78271 -1.18214 1.43049
                  }
                }
              }
              JOINT lIndex1
              {
                OFFSET 7.75947 0.938293 5.60832
                CHANNELS 3 Zrotation Xrotation Yrotation
                JOINT lIndex2
                {
                  OFFSET 2.54057 -0.884171 1.56538
                  CHANNELS 3 Zrotation Xrotation Yrotation
                  End Site
                  {
                    OFFSET 1.62519 -0.234802 1.16502
                  }
                }
              }
              JOINT lMid1
              {
                OFFSET 8.24714 1.18213 3.41376
                CHANNELS 3 Zrotation Xrotation Yrotation
                JOINT lMid2
                {
                  OFFSET 3.10165 -0.590103 1.0647
                  CHANNELS 3 Zrotation Xrotation Yrotation
                  End Site
                  {
                    OFFSET 2.48547 -0.328903 0.83742
                  }
                }
              }
              JOINT lRing1
              {
                OFFSET 8.82822 0.546677 1.51678
                CHANNELS 3 Zrotation Xrotation Yrotation
                JOINT lRing2
                {
                  OFFSET 2.60934 -0.819778 -0.0198488
                  CHANNELS 3 Zrotation Xrotation Yrotation
                  End Site
                  {
                    OFFSET 2.33842 -0.294052 0.168128
                  }
                }
              }
              JOINT lPinky1
              {
                OFFSET 8.27202 -0.0477905 -0.4584
                CHANNELS 3 Zrotation Xrotation Yrotation
                JOINT lPinky2
                {
                  OFFSET 1.82734 -0.647385 -0.700984
                  CHANNELS 3 Zrotation Xrotation Yrotation
                  End Site
                  {
                    OFFSET 1.69225 -0.51767 -0.607171
                  }
                }
              }
            }
          }
        }
      }
    }
  }
  JOINT rButtock
  {
    OFFSET -8.77824 4.35084 1.2192
    CHANNELS 3 Zrotation Xrotation Yrotation
    JOINT rThigh
    {
      OFFSET 0 -1.70687 -2.19456
      CHANNELS 3 Zrotation Xrotation Yrotation
      JOINT rShin
      {
        OFFSET 0 -36.8199 0.73152
        CHANNELS 3 Zrotation Xrotation Yrotation
        JOINT rFoot
        {
          OFFSET 0.73152 -45.1104 -5.12064
          CHANNELS 3 Zrotation Xrotation Yrotation
          End Site
          {
            OFFSET -1.1221 -3.69964 12.103
          }
        }
      }
    }
  }
  JOINT lButtock
  {
    OFFSET 8.77824 4.35084 1.2192
    CHANNELS 3 Zrotation Xrotation Yrotation
    JOINT lThigh
    {
      OFFSET 0 -1.70687 -2.19456
      CHANNELS 3 Zrotation Xrotation Yrotation
      JOINT lShin
      {
        OFFSET 0 -36.8199 0.73152
        CHANNELS 3 Zrotation Xrotation Yrotation
        JOINT lFoot
        {
          OFFSET -0.73152 -45.1104 -5.12064
          CHANNELS 3 Zrotation Xrotation Yrotation
          End Site
          {
            OFFSET 1.1221 -3.69964 12.103
          }
        }
      }
    }
  }
}
MOTION
Frames:	6
Frame Time:	0.00833333
8.08972 85.324 4.20003 0.0 0.0 0.0 1.12934 -0.00396629 0.0310308 0.311302 -0.00299257 0.0539265 3.79073e-15 7.95139e-16 2.23633e-16 1.14363e-14 9.54166e-15 7.65632e-16 -0.0 0.0 0.0 -0.0 0.0 0.0 1.83747e-15 -3.30014e-18 2.48481e-16 4.054e-14 -2.60905e-16 3.57812e-15 6.80837e-13 -2.06935e-13 5.725e-14 7.76375e-12 1.89168e-13 5.21611e-13 1.8316e-11 -3.53548e-14 1.26904e-12 3.16151e-11 -6.36111e-14 2.19617e-12 1.8322e-11 -3.49861e-14 1.25314e-12 7.73091 5.47488 0.417314 1.83155e-11 -3.55825e-14 1.26904e-12 2.90554 0.965183 0.102902 1.83205e-11 -3.57812e-14 1.27063e-12 10.2786 0.731801 0.0259123 1.83077e-11 -3.1408e-14 1.28494e-12 2.22167 -0.733487 -0.20892 1.74077e-15 -3.49426e-18 0.0 3.78046e-14 -2.60905e-16 1.98785e-15 6.77756e-13 2.00574e-13 4.45278e-14 7.7727e-12 -2.27012e-13 5.53417e-13 1.83328e-11 -5.524e-14 1.2754e-12 3.16759e-11 -9.22361e-14 2.19299e-12 1.83295e-11 -5.76476e-14 1.28176e-12 -7.73091 5.47488 -0.417314 1.83334e-11 -5.53615e-14 1.27858e-12 -2.90554 0.965183 -0.102902 1.83283e-11 -5.51627e-14 1.27381e-12 -10.2786 0.731801 -0.0259123 1.83458e-11 -5.00937e-14 1.2595e-12 -2.22167 -0.733487 0.20892 -2.03217e-16 0.0 -3.88251e-19 1.37449 -5.74256 -0.121424 0.000623948 4.84494 0.0346681 -0.528144 0.895523 0.0785379 2.03217e-16 0.0 3.88251e-19 0.335708 -1.92038 0.0114961 0.00941088 -2.07853 0.0778092 0.520592 3.99667 -0.141546
10.3733 84.156 -0.0873266 29.0489 89.787 40.3688 1.41963 -3.99477 -1.40918 0.58208 0.921808 -0.357963 -2.05081 1.43072 -3.45134 3.3627 4.97917 -6.38 -0.0 0.0 0.0 -0.0 0.0 0.0 5.11022e-15 -6.56579e-14 -3.75827e-16 22.16 4.14878 0.611306 -6.03102 -3.2331 8.82322 3.24923 -41.8805 -1.33207 4.21225e-11 -2.09991e-12 -6.07041e-12 6.88177e-11 -2.4287e-12 -6.67734e-12 4.21262e-11 -2.09753e-12 -6.08276e-12 7.73091 5.47488 0.417314 4.21215e-11 -2.0971e-12 -6.07136e-12 2.90554 0.965183 0.102902 4.21269e-11 -2.0973e-12 -6.06943e-12 10.2786 0.731801 0.0259123 4.21179e-11 -2.0935e-12 -6.05741e-12 2.22167 -0.733487 -0.20892 5.04677e-15 -6.56587e-14 -5.48211e-16 -21.3666 11.9261 -0.179557 5.0823 -2.51165 -7.70603 -0.0182788 -2.99977 0.419504 -9.30403e-11 -4.06202e-11 -8.11956e-11 -1.59942e-10 -7.06464e-11 -1.4153e-10 -9.30434e-11 -4.06232e-11 -8.11903e-11 -7.73091 5.47488 -0.417314 -9.30399e-11 -4.06215e-11 -8.11934e-11 -2.90554 0.965183 -0.102902 -9.30449e-11 -4.06212e-11 -8.11974e-11 -10.2786 0.731801 -0.0259123 -9.30293e-11 -4.06167e-11 -8.12081e-11 -2.22167 -0.733487 0.20892 -2.03217e-16 0.0 -3.88251e-19 0.0417823 -7.61258 -2.79313 0.00359726 5.87403 0.0541534 -0.482066 -1.44735 -0.74421 2.03217e-16 0.0 3.88251e-19 1.42618 -5.59066 2.75908 0.0157509 2.76511 -0.00751386 0.375602 -0.124662 -1.23512
10.3559 84.155 -0.0884222 49.4076 89.8795 60.809 1.50275 -8.2039 -2.95538 0.8818 1.89903 -0.793765 -4.02948 2.92569 -7.10737 8.1294 10.0362 -13.2827 -0.0 0.0 0.0 -0.0 0.0 0.0 9.28167e-15 -1.3885e-13 -1.63997e-15 45.4901 8.52613 1.26869 -11.3343 -6.39325 18.236 -19.4696 -85.6574 -28.0513 8.17722e-11 -1.15744e-11 -2.4762e-11 1.31611e-10 -1.64979e-11 -3.11377e-11 8.17733e-11 -1.15697e-11 -2.47706e-11 7.73091 5.47488 0.417314 8.17705e-11 -1.15682e-11 -2.4764e-11 2.90554 0.965183 0.102902 8.17765e-11 -1.15684e-11 -2.47618e-11 10.2786 0.731801 0.0259123 8.17717e-11 -1.15652e-11 -2.47523e-11 2.22167 -0.733487 -0.20892 9.25562e-15 -1.38852e-13 -1.72694e-15 -43.8631 24.5371 -0.396886 9.72659 -5.01477 -15.8984 0.01042 -6.17221 0.867073 -2.58733e-10 -9.04102e-11 -1.31982e-10 -4.45512e-10 -1.57204e-10 -2.30861e-10 -2.58736e-10 -9.04138e-11 -1.31977e-10 -7.73091 5.47488 -0.417314 -2.58732e-10 -9.04127e-11 -1.3198e-10 -2.90554 0.965183 -0.102902 -2.58737e-10 -9.04123e-11 -1.31983e-10 -10.2786 0.731801 -0.0259123 -2.58724e-10 -9.04083e-11 -1.3199e-10 -2.22167 -0.733487 0.20892 -2.03217e-16 0.0 -3.88251e-19 -1.56075 -9.57123 -5.64754 0.00606093 6.97606 0.0750383 -0.506869 -3.92747 -1.61504 2.03217e-16 0.0 3.88251e-19 2.96411 -9.43911 5.71328 0.0382421 7.88584 -0.0984713 0.0506807 -4.47547 -2.40115
10.3547 84.1577 -0.0682979 85.0305 89.9749 96.4393 1.38767 -11.9461 -4.37424 1.16356 2.77087 -1.18299 -5.63728 4.22985 -10.3794 13.4331 14.1877 -19.6917 -0.0 0.0 0.0 -0.0 0.0 0.0 1.16557e-14 -1.96967e-13 -1.62444e-15 66.2091 12.4406 1.87311 -15.1949 -8.78092 26.7654 -163.447 -54.2281 -174.906 8.97355e-11 -6.22901e-12 -2.07493e-11 1.43223e-10 -7.15888e-12 -2.44244e-11 8.97345e-11 -6.22261e-12 -2.07546e-11 7.73091 5.47488 0.417314 8.97334e-11 -6.22014e-12 -2.07521e-11 2.90554 0.965183 0.102902 8.97398e-11 -6.22035e-12 -2.07495e-11 10.2786 0.731801 0.0259123 8.97383e-11 -6.21768e-12 -2.07421e-11 2.22167 -0.733487 -0.20892 1.16588e-14 -1.96969e-13 -1.64463e-15 -63.8314 35.7768 -0.649632 13.2686 -6.99094 -23.2789 0.0783305 -8.99735 1.27245 -3.15787e-10 -1.2175e-10 -2.46138e-10 -5.43176e-10 -2.11755e-10 -4.28975e-10 -3.15789e-10 -1.21754e-10 -2.46134e-10 -7.73091 5.47488 -0.417314 -3.15787e-10 -1.21754e-10 -2.46137e-10 -2.90554 0.965183 -0.102902 -3.15791e-10 -1.21753e-10 -2.4614e-10 -10.2786 0.731801 -0.0259123 -3.15779e-10 -1.2175e-10 -2.46143e-10 -2.22167 -0.733487 0.20892 -2.03217e-16 0.0 -3.88251e-19 -3.15417 -11.2654 -8.22337 0.00742318 7.93219 0.0934126 -0.592612 -6.12811 -2.40271 2.03217e-16 0.0 3.88251e-19 4.68284 -12.8154 8.42624 0.0723012 12.4523 -0.18232 -0.38974 -8.35241 -3.45969
10.3835 84.1606 -0.0671906 127.039 89.9622 138.457 1.21315 -14.5498 -5.39419 1.37224 3.37979 -1.45456 -6.68055 5.11637 -12.6671 17.7098 16.7904 -24.3383 -0.0 0.0 0.0 -0.0 0.0 0.0 9.53629e-15 -2.17395e-13 1.59028e-15 80.5935 15.2033 2.3081 -17.4532 -10.1107 32.8049 -163.036 -26.7271 -175.942 1.8483e-11 3.61661e-11 4.00241e-11 2.68797e-11 6.07009e-11 6.0223e-11 1.8481e-11 3.61728e-11 4.00209e-11 7.73091 5.47488 0.417314 1.84806e-11 3.61758e-11 4.00209e-11 2.90554 0.965183 0.102902 1.84872e-11 3.61756e-11 4.00241e-11 10.2786 0.731801 0.0259123 1.84872e-11 3.6178e-11 4.00305e-11 2.22167 -0.733487 -0.20892 9.54768e-15 -2.17397e-13 1.59028e-15 -77.6786 43.5896 -0.890026 15.4292 -8.16752 -28.4767 0.149522 -10.9561 1.55901 -1.01244e-10 -1.06965e-10 -5.1872e-10 -1.71076e-10 -1.86291e-10 -8.99047e-10 -1.01246e-10 -1.06969e-10 -5.18717e-10 -7.73091 5.47488 -0.417314 -1.01244e-10 -1.06969e-10 -5.1872e-10 -2.90554 0.965183 -0.102902 -1.01249e-10 -1.06969e-10 -5.18721e-10 -10.2786 0.731801 -0.0259123 -1.01238e-10 -1.06966e-10 -5.18723e-10 -2.22167 -0.733487 0.20892 -2.03217e-16 0.0 -3.88251e-19 -4.34463 -12.373 -10.0319 0.00761117 8.52355 0.105274 -0.68755 -7.63492 -2.9692 2.03217e-16 0.0 3.88251e-19 6.08778 -15.1182 10.3808 0.104192 15.6334 -0.243678 -0.781162 -11.0598 -4.20637
10.4246 84.1656 -0.0678646 205.222 90.0135 216.645 1.16396 -15.5821 -5.79776 1.46875 3.61991 -1.56078 -7.09802 5.45903 -13.559 19.508 17.7337 -26.1867 -0.0 0.0 0.0 -0.0 0.0 0.0 6.31391e-16 -1.90055e-13 1.0741e-14 86.1937 16.373 2.47823 -18.2645 -10.5562 35.2222 -162.689 -15.9204 -175.973 -2.00337e-10 1.47476e-10 2.04531e-10 -3.27638e-10 2.37426e-10 2.86881e-10 -2.00338e-10 1.47481e-10 2.04528e-10 7.73091 5.47488 0.417314 -2.00339e-10 1.47484e-10 2.04528e-10 2.90554 0.965183 0.102902 -2.00333e-10 1.47484e-10 2.04533e-10 10.2786 0.731801 0.0259123 -2.00334e-10 1.47487e-10 2.0454e-10 2.22167 -0.733487 -0.20892 6.1417e-16 -1.90057e-13 1.06866e-14 -83.1063 46.5919 -1.0055 16.2167 -8.5793 -30.5356 0.182067 -11.6982 1.66908 6.07973e-10 -1.33658e-11 -1.10903e-09 1.05695e-09 -2.41306e-11 -1.91501e-09 6.07972e-10 -1.33676e-11 -1.10903e-09 -7.73091 5.47488 -0.417314 6.07972e-10 -1.33692e-11 -1.10903e-09 -2.90554 0.965183 -0.102902 6.07968e-10 -1.33686e-11 -1.10903e-09 -10.2786 0.731801 -0.0259123 6.07979e-10 -1.33674e-11 -1.10903e-09 -2.22167 -0.733487 0.20892 -2.03217e-16 0.0 -3.88251e-19 -4.79778 -12.6949 -10.7228 0.00670303 8.58447 0.107613 -0.730856 -8.16502 -3.21911 2.03217e-16 0.0 3.88251e-19 6.70656 -15.9917 11.1729 0.118349 16.8742 -0.269787 -0.947678 -12.1474 -4.47269
